<?xml version="1.0" encoding="utf-8"?>
<!-- Generator: Adobe Illustrator 21.1.0, SVG Export Plug-In . SVG Version: 6.00 Build 0)  -->
<svg version="1.1" id="Layer_1" xmlns="http://www.w3.org/2000/svg" xmlns:xlink="http://www.w3.org/1999/xlink" x="0px" y="0px"
	 viewBox="0 0 1000 1000" style="enable-background:new 0 0 482.1 108.8;" xml:space="preserve">
<style type="text/css">
	.st0{fill:#2979FF;}
	.st1{fill:#E3F2FD;}
	.st2{fill:#FAFAFA;}
	.st3{font-family:'Roboto-Bold';}
	.st4{font-size:46.8px;}
</style>
<title>ListOverflowLogo</title>
<g>
	<g id="Layer_1_1_">
		<ellipse class="st0" cx="90.2" cy="60.5" rx="36.7" ry="46.3"/>
		<path class="st0" d="M2.3,19.9L19.9,2.2c3-3,7.8-3,10.7,0l63.1,63.1c3,3,3,7.8,0,10.7L76.1,93.7c-3,3-7.8,3-10.7,0L2.3,30.6
			C-0.8,27.7-0.8,22.8,2.3,19.9z"/>
		<path class="st0" d="M105.4,93.7L87.8,76.1c-3-3-3-7.8,0-10.7l63.1-63.1c3-3,7.8-3,10.7,0l17.6,17.6c3,3,3,7.8,0,10.7l-63.1,63.1
			C113.1,96.7,108.2,96.7,105.4,93.7z"/>
		<ellipse class="st1" cx="90.5" cy="60.7" rx="19.5" ry="29.3"/>
	</g>
</g>
<text transform="matrix(1 0 0 1 197.3111 65.6777)" class="st2 st3 st4">List Overflow</text>
</svg>
